<svg xmlns="http://www.w3.org/2000/svg" width="149" height="117" version="1.0">
  <rect width="100%" height="100%" fill="#eeeeee"/>
  <path style="text-indent:0;text-align:start;line-height:100%;text-transform:none;block-progression:tb;marker:none" d="M120.202 38.82c0 3.809-.053 4.337-2.01 4.602l-1.216.159c-.37.264-.265 1.163.106 1.322a74.244 74.244 0 015.077-.159c1.851 0 3.385.053 5.553.159.37-.159.476-1.058.106-1.322l-1.692-.16c-1.904-.158-2.01-.792-2.01-4.6V27.767c0-1.27.106-1.64 1.005-1.64h6.61c2.275 0 2.645.265 2.645 3.491v9.203c0 3.808-.053 4.336-2.01 4.6l-1.11.16c-.37.264-.265 1.163.106 1.322a68.92 68.92 0 014.971-.159c1.851 0 3.385.053 4.972.159.37-.159.476-1.058.105-1.322l-1.11-.16c-1.904-.264-2.01-.792-2.01-4.6v-8.833c0-2.168.106-4.707.211-6.61a.65.65 0 00-.528-.265c-1.27.476-4.602.793-6.929.793h-5.923c-.9 0-1.005-.317-1.005-1.64v-.581c0-8.198 1.904-12.746 6.03-12.746 1.374 0 3.437.899 4.97 3.49.265.423.635.794 1.376.794.793 0 2.168-.582 2.168-2.169 0-2.221-2.962-4.125-6.558-4.125-5.924 0-9.15 4.443-10.26 7.14-1.217 2.803-1.64 5.87-1.64 8.885 0 .529-.37.846-.793 1.058l-2.274 1.11c-.212.318-.16.794.158 1.005h1.851c1.058 0 1.058.106 1.058 1.534v11.16M21.843 26.127c.581-.211.952-1.692.37-2.22h-6.03c-.898 0-.898-.054-.898-1.482v-1.534c0-2.644.211-6.505 1.163-8.938.793-1.904 2.116-2.909 3.755-2.909 1.745 0 3.226 1.164 4.231 2.328.37.423.688.634 1.27.634 1.004 0 2.01-.846 2.01-1.904 0-1.904-2.38-3.173-5.184-3.173-5.236 0-8.197 3.702-9.52 6.717-1.269 2.961-1.64 6.24-1.64 9.308 0 .529-.37.846-.793 1.058l-2.274 1.11c-.211.318-.158.794.159 1.005h1.851c1.058 0 1.058.106 1.058 1.534v11.16c0 3.808-.053 4.336-2.01 4.6l-1.216.16c-.37.264-.265 1.163.105 1.322a74.244 74.244 0 015.078-.159c1.85 0 3.385.053 5.765.159.37-.159.476-1.058.105-1.322l-1.904-.16c-1.904-.158-2.01-.792-2.01-4.6V27.66c0-1.428 0-1.534.9-1.534h5.659M28.516 38.82c0 3.809-.053 4.337-2.01 4.602l-1.11.159c-.37.264-.264 1.163.106 1.322a68.92 68.92 0 014.971-.159c1.851 0 3.385.053 4.972.159.37-.159.476-1.058.106-1.322l-1.111-.16c-1.904-.264-2.01-.792-2.01-4.6V29.3c0-2.169.106-4.707.212-6.558-.053-.212-.265-.318-.53-.318-1.216.794-4.23 2.169-5.447 2.592-.264.158-.264.74-.053.952l.476.317c1.428.952 1.428 1.216 1.428 3.28v9.255m1.746-27.08c-1.587 0-2.856 1.111-2.856 2.857 0 1.428 1.057 2.644 2.697 2.644 1.48 0 2.803-.846 2.803-2.75 0-1.48-1.058-2.75-2.644-2.75" font-size="52.888" font-weight="400" color="#000" overflow="visible" font-family="Adobe Garamond Pro"/>
  <path d="M66 31h22v-6l7 7.5-7 7V34H66v-3z" fill-rule="evenodd"/>
  <path style="text-indent:0;text-align:start;line-height:100%;text-transform:none;block-progression:tb;marker:none" d="M133.371 89.239c.952 0 1.005.159 1.005 1.058v11.635c0 3.808-.053 4.337-2.01 4.601l-1.216.159c-.37.265-.264 1.164.106 1.322a74.249 74.249 0 015.077-.158c1.851 0 3.385.052 5.13.158.37-.158.476-1.057.106-1.322l-1.27-.159c-1.903-.264-2.01-.793-2.01-4.6v-23.8c0-2.275.054-5.554.16-7.881-.16-.159-.37-.212-.635-.212l-1.375 1.376c-1.534-.952-3.226-1.376-4.919-1.376-5.659 0-8.726 3.967-9.89 6.823-1.216 2.962-1.428 5.87-1.428 9.203 0 .528-.37.846-.793 1.057l-2.274 1.111c-.212.317-.16.793.158 1.005h1.851c1.058 0 1.058.106 1.058 1.534v11.16c0 3.807-.053 4.336-2.01 4.6l-1.216.159c-.37.265-.265 1.164.106 1.322a74.249 74.249 0 015.077-.158c1.851 0 3.385.052 5.5.158.37-.158.476-1.057.106-1.322l-1.64-.159c-1.903-.158-2.01-.793-2.01-4.6V90.877c0-1.64.054-1.64 1.006-1.64h8.25m1.005-3.278c0 .952-.211 1.058-1.005 1.058h-8.25c-.9 0-1.005-.053-1.005-1.111v-1.64c0-4.442.264-12.534 6.135-12.534 1.428 0 2.644.952 3.226 1.692.635.846.9 2.222.9 4.02v8.515M21.843 89.239c.581-.212.952-1.693.37-2.221h-6.03c-.898 0-.898-.053-.898-1.481v-1.534c0-2.644.211-6.505 1.163-8.938.793-1.904 2.116-2.909 3.755-2.909 1.745 0 3.226 1.163 4.231 2.327.37.423.688.635 1.27.635 1.004 0 2.01-.847 2.01-1.904 0-1.904-2.38-3.174-5.184-3.174-5.236 0-8.197 3.703-9.52 6.717-1.269 2.962-1.64 6.241-1.64 9.309 0 .528-.37.846-.793 1.057l-2.274 1.111c-.211.317-.158.793.159 1.005h1.851c1.058 0 1.058.106 1.058 1.534v11.16c0 3.807-.053 4.336-2.01 4.6l-1.216.159c-.37.265-.265 1.164.105 1.322a74.249 74.249 0 015.078-.158c1.85 0 3.385.052 5.765.158.37-.158.476-1.057.105-1.322l-1.904-.159c-1.904-.158-2.01-.793-2.01-4.6v-11.16c0-1.428 0-1.534.9-1.534h5.659M34.344 76.916c0-2.327.106-4.972.159-6.558a.582.582 0 00-.529-.318c-1.904 1.005-4.39 1.799-5.712 2.222-.264.158-.264.899 0 1.057l.529.318c1.587.952 1.64 1.27 1.64 4.39v23.905c0 3.808-.053 4.337-2.01 4.601l-1.217.159c-.37.265-.264 1.164.106 1.322a74.249 74.249 0 015.077-.158c1.851 0 3.385.052 5.13.158.37-.158.477-1.057.106-1.322l-1.269-.159c-1.904-.264-2.01-.793-2.01-4.6V76.915" font-size="52.888" font-weight="400" color="#000" overflow="visible" font-family="Adobe Garamond Pro"/>
  <path d="M66 94.112h22v-6l7 7.5-7 7v-5.5H66v-3z" fill-rule="evenodd"/>
</svg>
