<?xml version="1.0" encoding="UTF-8" standalone="no"?>
<!-- Created with Inkscape (http://www.inkscape.org/) -->
<svg
   xmlns:dc="http://purl.org/dc/elements/1.1/"
   xmlns:cc="http://web.resource.org/cc/"
   xmlns:rdf="http://www.w3.org/1999/02/22-rdf-syntax-ns#"
   xmlns:svg="http://www.w3.org/2000/svg"
   xmlns="http://www.w3.org/2000/svg"
   xmlns:sodipodi="http://sodipodi.sourceforge.net/DTD/sodipodi-0.dtd"
   xmlns:inkscape="http://www.inkscape.org/namespaces/inkscape"
   id="svg1931"
   sodipodi:version="0.32"
   inkscape:version="0.44"
   width="149"
   height="117"
   version="1.0"
   sodipodi:docbase="/home/mark"
   sodipodi:docname="Ligature_drawing.svg">
  <metadata
     id="metadata1936">
    <rdf:RDF>
      <cc:Work
         rdf:about="">
        <dc:format>image/svg+xml</dc:format>
        <dc:type
           rdf:resource="http://purl.org/dc/dcmitype/StillImage" />
      </cc:Work>
    </rdf:RDF>
  </metadata>
  <defs
     id="defs1934" />
  <sodipodi:namedview
     inkscape:cy="60.138291"
     inkscape:cx="103.91825"
     inkscape:zoom="1.2279853"
     inkscape:window-height="945"
     inkscape:window-width="1280"
     inkscape:pageshadow="2"
     inkscape:pageopacity="0.0"
     guidetolerance="10.0"
     gridtolerance="10.0"
     objecttolerance="10.0"
     borderopacity="1.0"
     bordercolor="#666666"
     pagecolor="#ffffff"
     id="base"
     inkscape:window-x="0"
     inkscape:window-y="0"
     inkscape:current-layer="layer1" />
  <g
     inkscape:groupmode="layer"
     id="layer1"
     inkscape:label="main"
     style="opacity:1">
    <path
       style="font-size:52.8883667px;font-style:normal;font-variant:normal;font-weight:normal;font-stretch:normal;text-indent:0;text-align:start;text-decoration:none;line-height:100%;letter-spacing:normal;word-spacing:normal;text-transform:none;direction:ltr;block-progression:tb;writing-mode:lr-tb;text-anchor:start;color:black;fill:black;fill-opacity:1;fill-rule:nonzero;stroke:none;stroke-width:1pt;stroke-linecap:butt;stroke-linejoin:miter;stroke-miterlimit:4;stroke-dashoffset:0;stroke-opacity:1;marker:none;marker-start:none;marker-mid:none;marker-end:none;visibility:visible;display:inline;overflow:visible;font-family:Adobe Garamond Pro"
       d="M 120.20208,38.820598 C 120.20208,42.628556 120.14919,43.157444 118.19232,43.421886 L 116.97589,43.580551 C 116.60567,43.844992 116.71144,44.744095 117.08166,44.90276 C 118.66831,44.796983 120.25497,44.744095 122.15895,44.744095 C 124.01004,44.744095 125.5438,44.796983 127.71222,44.90276 C 128.08244,44.744095 128.18822,43.844992 127.818,43.580551 L 126.12557,43.421886 C 124.22159,43.263221 124.11581,42.628556 124.11581,38.820598 L 124.11581,27.766929 C 124.11581,26.49761 124.22159,26.12739 125.12069,26.12739 L 131.73174,26.12739 C 134.00594,26.12739 134.37616,26.391835 134.37616,29.618022 L 134.37616,38.820598 C 134.37616,42.628556 134.32327,43.157444 132.3664,43.421886 L 131.25574,43.580551 C 130.88553,43.844992 130.9913,44.744095 131.36152,44.90276 C 132.84239,44.796983 134.42905,44.744095 136.33303,44.744095 C 138.18412,44.744095 139.71788,44.796983 141.30453,44.90276 C 141.67475,44.744095 141.78053,43.844992 141.41031,43.580551 L 140.29966,43.421886 C 138.39568,43.157444 138.2899,42.628556 138.2899,38.820598 L 138.2899,29.988241 C 138.2899,27.81982 138.39567,25.281174 138.50145,23.377195 C 138.39567,23.21853 138.18412,23.112753 137.97257,23.112753 C 136.70325,23.588748 133.37128,23.906078 131.04419,23.906078 L 125.12069,23.906078 C 124.22159,23.906078 124.11581,23.588747 124.11581,22.266539 L 124.11581,21.684767 C 124.11581,13.487078 126.0198,8.9386706 130.14509,8.9386706 C 131.52018,8.9386706 133.58283,9.8377754 135.1166,12.429303 C 135.38104,12.852409 135.75126,13.222628 136.49169,13.222628 C 137.28502,13.222628 138.66012,12.640855 138.66012,11.054205 C 138.66012,8.8328961 135.69836,6.9289127 132.10196,6.9289127 C 126.17847,6.9289127 122.95227,11.371538 121.84162,14.068842 C 120.62518,16.871923 120.20208,19.939454 120.20208,22.954088 C 120.20208,23.482971 119.83186,23.800302 119.40875,24.011855 L 117.13455,25.122511 C 116.923,25.439841 116.97589,25.915837 117.29322,26.12739 L 119.14431,26.12739 C 120.20207,26.12739 120.20208,26.233168 120.20208,27.661152 L 120.20208,38.820598"
       id="text1872" />
    <path
       style="font-size:52.8883667px;font-style:normal;font-variant:normal;font-weight:normal;font-stretch:normal;text-indent:0;text-align:start;text-decoration:none;line-height:100%;letter-spacing:normal;word-spacing:normal;text-transform:none;direction:ltr;block-progression:tb;writing-mode:lr-tb;text-anchor:start;color:black;fill:black;fill-opacity:1;fill-rule:nonzero;stroke:none;stroke-width:1pt;stroke-linecap:butt;stroke-linejoin:miter;stroke-miterlimit:4;stroke-dashoffset:0;stroke-opacity:1;marker:none;marker-start:none;marker-mid:none;marker-end:none;visibility:visible;display:inline;overflow:visible;font-family:Adobe Garamond Pro"
       d="M 21.842716,26.12739 C 22.424487,25.915837 22.794706,24.434962 22.212934,23.906078 L 16.18366,23.906078 C 15.284559,23.906078 15.284558,23.853189 15.284558,22.425204 L 15.284558,20.891441 C 15.284558,18.247026 15.496112,14.38617 16.448102,11.953307 C 17.241427,10.049328 18.563638,9.0444473 20.203176,9.0444473 C 21.948491,9.0444473 23.429368,10.207993 24.434246,11.371535 C 24.804464,11.794642 25.121795,12.006196 25.703566,12.006196 C 26.708444,12.006196 27.713324,11.159981 27.713324,10.102215 C 27.713324,8.1982354 25.333345,6.9289127 22.530264,6.9289127 C 17.294321,6.9289127 14.332566,10.631101 13.010358,13.645735 C 11.741039,16.607481 11.370819,19.886566 11.370819,22.954088 C 11.370819,23.482971 11.0006,23.800302 10.577493,24.011855 L 8.3032937,25.122511 C 8.0917404,25.439841 8.1446289,25.915837 8.4619588,26.12739 L 10.313052,26.12739 C 11.370818,26.12739 11.370819,26.233168 11.370819,27.661152 L 11.370819,38.820598 C 11.370819,42.628556 11.317929,43.157444 9.361061,43.421886 L 8.1446286,43.580551 C 7.7744104,43.844992 7.8801871,44.744095 8.2504053,44.90276 C 9.8370547,44.796983 11.423709,44.744095 13.327689,44.744095 C 15.178779,44.744095 16.712546,44.796983 19.09252,44.90276 C 19.462739,44.744095 19.568515,43.844992 19.198297,43.580551 L 17.294316,43.421886 C 15.390337,43.263221 15.284558,42.628556 15.284558,38.820598 L 15.284558,27.661152 C 15.284558,26.233168 15.284559,26.12739 16.18366,26.12739 L 21.842716,26.12739"
       id="text2856" />
    <path
       style="font-size:52.8883667px;font-style:normal;font-variant:normal;font-weight:normal;font-stretch:normal;text-indent:0;text-align:start;text-decoration:none;line-height:100%;letter-spacing:normal;word-spacing:normal;text-transform:none;direction:ltr;block-progression:tb;writing-mode:lr-tb;text-anchor:start;color:black;fill:black;fill-opacity:1;fill-rule:nonzero;stroke:none;stroke-width:1pt;stroke-linecap:butt;stroke-linejoin:miter;stroke-miterlimit:4;stroke-dashoffset:0;stroke-opacity:1;marker:none;marker-start:none;marker-mid:none;marker-end:none;visibility:visible;display:inline;overflow:visible;font-family:Adobe Garamond Pro"
       d="M 28.516375,38.820598 C 28.516375,42.628556 28.463485,43.157444 26.506617,43.421886 L 25.395961,43.580551 C 25.025743,43.844992 25.13152,44.744095 25.501738,44.90276 C 26.982611,44.796983 28.569265,44.744095 30.473244,44.744095 C 32.324335,44.744095 33.858101,44.796983 35.444751,44.90276 C 35.814969,44.744095 35.920746,43.844992 35.550528,43.580551 L 34.439872,43.421886 C 32.535893,43.157444 32.430114,42.628556 32.430114,38.820598 L 32.430114,29.300692 C 32.430114,27.132271 32.535891,24.593625 32.641667,22.742534 C 32.588779,22.530981 32.377225,22.425204 32.112784,22.425204 C 30.896353,23.218529 27.881713,24.593628 26.665282,25.016734 C 26.40084,25.175399 26.40084,25.757171 26.612394,25.968725 L 27.088389,26.286055 C 28.516373,27.238045 28.516375,27.502489 28.516375,29.565134 L 28.516375,38.820598 M 30.261691,11.741754 C 28.675042,11.741754 27.405719,12.852411 27.405719,14.597726 C 27.405719,16.02571 28.463488,17.242144 30.103026,17.242144 C 31.583899,17.242144 32.906109,16.395928 32.906109,14.491949 C 32.906109,13.011076 31.84834,11.741754 30.261691,11.741754"
       id="text2860" />
    <path
       style="fill:black;fill-opacity:1;fill-rule:evenodd;stroke:none;stroke-width:1px;stroke-linecap:butt;stroke-linejoin:miter;stroke-opacity:1"
       d="M 66,31 L 88,31 L 88,25 L 95,32.5 L 88,39.5 L 88,34 L 66,34 L 66,31 z "
       id="path2864"
       sodipodi:nodetypes="cccccccc" />
    <path
       style="font-size:52.8883667px;font-style:normal;font-variant:normal;font-weight:normal;font-stretch:normal;text-indent:0;text-align:start;text-decoration:none;line-height:100%;letter-spacing:normal;word-spacing:normal;text-transform:none;direction:ltr;block-progression:tb;writing-mode:lr-tb;text-anchor:start;color:black;fill:black;fill-opacity:1;fill-rule:nonzero;stroke:none;stroke-width:1pt;stroke-linecap:butt;stroke-linejoin:miter;stroke-miterlimit:4;stroke-dashoffset:0;stroke-opacity:1;marker:none;marker-start:none;marker-mid:none;marker-end:none;visibility:visible;display:inline;overflow:visible;font-family:Adobe Garamond Pro"
       d="M 133.37128,89.238893 C 134.32327,89.238893 134.37616,89.397559 134.37616,90.296661 L 134.37616,101.9321 C 134.37616,105.74006 134.32327,106.26895 132.3664,106.53339 L 131.14997,106.69205 C 130.77975,106.9565 130.88553,107.8556 131.25574,108.01426 C 132.84239,107.90849 134.42905,107.8556 136.33303,107.8556 C 138.18412,107.8556 139.71788,107.90849 141.4632,108.01426 C 141.83342,107.8556 141.93919,106.9565 141.56898,106.69205 L 140.29966,106.53339 C 138.39568,106.26895 138.2899,105.74006 138.2899,101.9321 L 138.2899,78.132336 C 138.2899,75.858139 138.34279,72.579056 138.44856,70.25197 C 138.2899,70.093305 138.07834,70.040416 137.8139,70.040416 L 136.4388,71.415514 C 134.90504,70.463524 133.21261,70.040416 131.52019,70.040416 C 125.86114,70.040416 122.7936,74.007047 121.63006,76.863016 C 120.41363,79.824761 120.20208,82.733628 120.20208,86.065591 C 120.20208,86.594475 119.83186,86.911805 119.40875,87.123359 L 117.13455,88.234014 C 116.923,88.551344 116.97589,89.02734 117.29322,89.238893 L 119.14431,89.238893 C 120.20207,89.238893 120.20208,89.344672 120.20208,90.772656 L 120.20208,101.9321 C 120.20208,105.74006 120.14919,106.26895 118.19232,106.53339 L 116.97589,106.69205 C 116.60567,106.9565 116.71144,107.8556 117.08166,108.01426 C 118.66831,107.90849 120.25497,107.8556 122.15895,107.8556 C 124.01004,107.8556 125.5438,107.90849 127.65934,108.01426 C 128.02955,107.8556 128.13533,106.9565 127.76511,106.69205 L 126.12557,106.53339 C 124.22159,106.37472 124.11581,105.74006 124.11581,101.9321 L 124.11581,90.878433 C 124.11581,89.238895 124.1687,89.238893 125.12069,89.238893 L 133.37128,89.238893 M 134.37616,85.959815 C 134.37616,86.911804 134.1646,87.017582 133.37128,87.017582 L 125.12069,87.017582 C 124.22159,87.017582 124.11581,86.964693 124.11581,85.906926 L 124.11581,84.267387 C 124.11581,79.824769 124.38026,71.732844 130.25087,71.732844 C 131.67885,71.732844 132.89528,72.684835 133.47706,73.425272 C 134.11172,74.271485 134.37616,75.646585 134.37616,77.444788 L 134.37616,85.959815"
       id="text3751" />
    <path
       style="font-size:52.8883667px;font-style:normal;font-variant:normal;font-weight:normal;font-stretch:normal;text-indent:0;text-align:start;text-decoration:none;line-height:100%;letter-spacing:normal;word-spacing:normal;text-transform:none;direction:ltr;block-progression:tb;writing-mode:lr-tb;text-anchor:start;color:black;fill:black;fill-opacity:1;fill-rule:nonzero;stroke:none;stroke-width:1pt;stroke-linecap:butt;stroke-linejoin:miter;stroke-miterlimit:4;stroke-dashoffset:0;stroke-opacity:1;marker:none;marker-start:none;marker-mid:none;marker-end:none;visibility:visible;display:inline;overflow:visible;font-family:Adobe Garamond Pro"
       d="M 21.842716,89.238893 C 22.424487,89.02734 22.794706,87.546465 22.212934,87.017582 L 16.18366,87.017582 C 15.284559,87.017582 15.284558,86.964692 15.284558,85.536708 L 15.284558,84.002945 C 15.284558,81.358529 15.496112,77.497674 16.448102,75.064811 C 17.241427,73.160832 18.563638,72.155951 20.203176,72.155951 C 21.948491,72.155951 23.429368,73.319496 24.434246,74.483039 C 24.804464,74.906146 25.121795,75.117699 25.703566,75.117699 C 26.708444,75.117699 27.713324,74.271485 27.713324,73.213718 C 27.713324,71.309739 25.333345,70.040416 22.530264,70.040416 C 17.294321,70.040416 14.332566,73.742605 13.010358,76.757239 C 11.741039,79.718984 11.370819,82.998069 11.370819,86.065591 C 11.370819,86.594475 11.0006,86.911805 10.577493,87.123359 L 8.3032937,88.234014 C 8.0917404,88.551344 8.1446289,89.02734 8.4619588,89.238893 L 10.313052,89.238893 C 11.370818,89.238893 11.370819,89.344672 11.370819,90.772656 L 11.370819,101.9321 C 11.370819,105.74006 11.317929,106.26895 9.361061,106.53339 L 8.1446286,106.69205 C 7.7744104,106.9565 7.8801871,107.8556 8.2504053,108.01426 C 9.8370547,107.90849 11.423709,107.8556 13.327689,107.8556 C 15.178779,107.8556 16.712546,107.90849 19.09252,108.01426 C 19.462739,107.8556 19.568515,106.9565 19.198297,106.69205 L 17.294316,106.53339 C 15.390337,106.37472 15.284558,105.74006 15.284558,101.9321 L 15.284558,90.772656 C 15.284558,89.344672 15.284559,89.238893 16.18366,89.238893 L 21.842716,89.238893"
       id="text3755" />
    <path
       style="font-size:52.8883667px;font-style:normal;font-variant:normal;font-weight:normal;font-stretch:normal;text-indent:0;text-align:start;text-decoration:none;line-height:100%;letter-spacing:normal;word-spacing:normal;text-transform:none;direction:ltr;block-progression:tb;writing-mode:lr-tb;text-anchor:start;color:black;fill:black;fill-opacity:1;fill-rule:nonzero;stroke:none;stroke-width:1pt;stroke-linecap:butt;stroke-linejoin:miter;stroke-miterlimit:4;stroke-dashoffset:0;stroke-opacity:1;marker:none;marker-start:none;marker-mid:none;marker-end:none;visibility:visible;display:inline;overflow:visible;font-family:Adobe Garamond Pro"
       d="M 34.344256,76.915904 C 34.344256,74.588818 34.450033,71.944396 34.502921,70.357746 C 34.397144,70.146193 34.185591,70.040416 33.974037,70.040416 C 32.070058,71.045294 29.584302,71.838621 28.262094,72.261728 C 27.997652,72.420393 27.997652,73.16083 28.262094,73.319495 L 28.790977,73.636825 C 30.377627,74.588815 30.430517,74.906149 30.430517,78.02656 L 30.430517,101.9321 C 30.430517,105.74006 30.377626,106.26895 28.420759,106.53339 L 27.204326,106.69205 C 26.834108,106.9565 26.939885,107.8556 27.310103,108.01426 C 28.896753,107.90849 30.483407,107.8556 32.387386,107.8556 C 34.238477,107.8556 35.772244,107.90849 37.517558,108.01426 C 37.887776,107.8556 37.993553,106.9565 37.623335,106.69205 L 36.354014,106.53339 C 34.450035,106.26895 34.344256,105.74006 34.344256,101.9321 L 34.344256,76.915904"
       id="text3759" />
    <path
       style="opacity:1;fill:black;fill-opacity:1;fill-rule:evenodd;stroke:none;stroke-width:1px;stroke-linecap:butt;stroke-linejoin:miter;stroke-opacity:1"
       d="M 66,94.111506 L 88,94.111506 L 88,88.111506 L 95,95.611506 L 88,102.61151 L 88,97.111506 L 66,97.111506 L 66,94.111506 z "
       id="path3763"
       sodipodi:nodetypes="cccccccc" />
  </g>
</svg>
